
<svg xmlns="http://www.w3.org/2000/svg" data-name="Layer 1" viewBox="0 0 100 100" x="0px" y="0px"><title>09</title><g data-name="Group"><path data-name="Compound Path" d="M74.1,29.1H44a2,2,0,0,0-2,2V43.6a2,2,0,0,0,2,2H74.1a2,2,0,0,0,2-2V31.1A2,2,0,0,0,74.1,29.1Zm-2,12.5H46V33.1H72.1Z"></path><path data-name="Compound Path" d="M87.8,25.5a7,7,0,0,0-7-7H37.3a7,7,0,0,0-7,7V60.4H19.2a7,7,0,0,0-7,7v3.1a11,11,0,0,0,11,11H74.5A13.4,13.4,0,0,0,87.8,68.2Zm-57.5,45a7.1,7.1,0,0,1-7.1,7,7,7,0,0,1-7-7V67.4a2.9,2.9,0,0,1,3-3H30.3Zm53.5-2.3a9.3,9.3,0,0,1-9.3,9.3H31.7a11,11,0,0,0,2.6-7v-45a3,3,0,0,1,3-3H80.8a3,3,0,0,1,3,3Z"></path><path data-name="Path" d="M45,56.6H63.1a2,2,0,0,0,0-4H45a2,2,0,0,0,0,4Z"></path><path data-name="Path" d="M73.1,64.6H45a2,2,0,0,0,0,4H73.1a2,2,0,0,0,0-4Z"></path></g></svg>
