<svg xmlns="http://www.w3.org/2000/svg" data-name="Layer 1" viewBox="0 0 98 98" x="0px" y="0px">
  <title>02</title>
  <g data-name="Group">
    <g data-name="Group">
      <g data-name="Group">
        <path data-name="Path"
              d="M79.9,83.4H21a8,8,0,0,1-8-8V16.6a2,2,0,1,1,4,0V75.4a4,4,0,0,0,4,4H79.9a2,2,0,0,1,0,4Z"></path>
      </g>
    </g>
    <path data-name="Compound Path"
          d="M77.5,21.5A7.5,7.5,0,0,0,70,29a7.8,7.8,0,0,0,1.9,5.1l-4.3,5.1a7.8,7.8,0,0,0-3.1-.7A7.5,7.5,0,0,0,57,46a3.7,3.7,0,0,0,.1,1.1l-5,1.4A7.5,7.5,0,0,0,38,52a8.7,8.7,0,0,0,.5,2.8l-3.8,4a7.7,7.7,0,0,0-4.2-1.3A7.5,7.5,0,1,0,38,65a8.2,8.2,0,0,0-.7-3.1L41,58a7.6,7.6,0,0,0,4.5,1.5,7.4,7.4,0,0,0,7.4-7.1l5.8-1.6a7.5,7.5,0,0,0,5.8,2.7A7.6,7.6,0,0,0,72,46a7.5,7.5,0,0,0-1.3-4.2l4.7-5.6a6.6,6.6,0,0,0,2.1.3,7.5,7.5,0,0,0,0-15Zm-47,47a3.5,3.5,0,0,1,0-7,3.5,3.5,0,0,1,0,7Zm15-13a3.5,3.5,0,0,1,0-7,3.5,3.5,0,0,1,0,7Zm19-6a3.5,3.5,0,0,1,0-7,3.5,3.5,0,0,1,0,7Zm13-17a3.5,3.5,0,0,1,0-7,3.5,3.5,0,0,1,0,7Z"></path>
  </g>
</svg>
